<mxfile host="app.diagrams.net" agent="Mozilla/5.0 (Windows NT 10.0; Win64; x64) AppleWebKit/537.36 (KHTML, like Gecko) Chrome/137.0.0.0 Safari/537.36" version="27.1.6">
  <diagram id="about" name="AboutPage">
    <mxGraphModel dx="906" dy="458" grid="1" gridSize="10" guides="1" tooltips="1" connect="1" arrows="1" fold="1" page="1" pageScale="1" pageWidth="827" pageHeight="1169" math="0" shadow="0">
      <root>
        <mxCell id="0" />
        <mxCell id="1" parent="0" />
        <mxCell id="2" value="" style="rounded=1;fillColor=#1976d2;strokeColor=#1976d2;" parent="1" vertex="1">
          <mxGeometry x="24" width="780" height="50" as="geometry" />
        </mxCell>
        <mxCell id="3" value="Home   About   To-Do   Login   Register" style="text;html=1;align=left;verticalAlign=middle;fontSize=14;fontColor=#ffffff;" parent="1" vertex="1">
          <mxGeometry x="44" width="760" height="50" as="geometry" />
        </mxCell>
        <mxCell id="4" value="" style="rounded=1;fillColor=#ffffff;strokeColor=#cccccc;" parent="1" vertex="1">
          <mxGeometry x="84" y="80" width="660" height="480" as="geometry" />
        </mxCell>
        <mxCell id="5" value="" style="ellipse;fillColor=#61dafb;strokeColor=#61dafb;" parent="4" vertex="1">
          <mxGeometry x="264" y="27.42857142857143" width="132" height="137.14285714285714" as="geometry" />
        </mxCell>
        <mxCell id="6" value="Logo" style="text;html=1;align=center;verticalAlign=middle;fontSize=12;fontColor=#ffffff;" parent="5" vertex="1">
          <mxGeometry width="132" height="137.14285714285714" as="geometry" />
        </mxCell>
        <mxCell id="7" value="To-Do List App" style="text;html=1;align=center;verticalAlign=middle;fontSize=20;fontColor=#000000;fontStyle=1;" parent="4" vertex="1">
          <mxGeometry y="192" width="660" height="48" as="geometry" />
        </mxCell>
        <mxCell id="8" value="Цей додаток дозволяє:" style="text;html=1;align=center;verticalAlign=top;fontSize=14;fontColor=#333333;" parent="4" vertex="1">
          <mxGeometry x="26.399999999999995" y="246.85714285714286" width="607.1999999999999" height="27.42857142857143" as="geometry" />
        </mxCell>
        <mxCell id="9" value="• Реєстрація та вхід&lt;br&gt;• Перегляд профілю&lt;br&gt;&lt;div style=&quot;&quot;&gt;&lt;span style=&quot;background-color: transparent; color: light-dark(rgb(51, 51, 51), rgb(193, 193, 193));&quot;&gt;• Керування завданнями&lt;/span&gt;&lt;/div&gt;" style="text;html=1;align=center;verticalAlign=top;fontSize=14;fontColor=#333333;" parent="4" vertex="1">
          <mxGeometry x="52.79999999999999" y="288" width="554.4" height="109.71428571428572" as="geometry" />
        </mxCell>
      </root>
    </mxGraphModel>
  </diagram>
</mxfile>
